Coordinates
version=1
nRows=6
nColumns=38
inDegrees=yes

Units are S.I. units (second, meters, Newtons, ...)
Angles are in degrees.

endheader
time	pelvis_tilt	pelvis_list	pelvis_rotation	pelvis_tx	pelvis_ty	pelvis_tz	hip_flexion_r	hip_adduction_r	hip_rotation_r	knee_angle_r	ankle_angle_r	subtalar_angle_r	mtp_angle_r	hip_flexion_l	hip_adduction_l	hip_rotation_l	knee_angle_l	ankle_angle_l	subtalar_angle_l	mtp_angle_l	lumbar_extension	lumbar_bending	lumbar_rotation	arm_flex_r	arm_add_r	arm_rot_r	elbow_flex_r	pro_sup_r	wrist_flex_r	wrist_dev_r	arm_flex_l	arm_add_l	arm_rot_l	elbow_flex_l	pro_sup_l	wrist_flex_l	wrist_dev_l
      1.50000000	      2.26210057	     -0.55142154	     -6.71259847	     -0.01886346	      1.06254579	     -0.25515678	    -13.12503890	     -0.86680635	     -4.61643898	    -31.49710955	     -2.51339703	     -1.71688884	      0.00000000	     24.15706072	     -1.03439240	     -4.40912353	    -20.58309833	     -8.37541778	    -11.45716293	      0.00000000	    -16.98107184	     -3.89095197	      5.26383483	      2.27889768	    -14.73103315	     30.06164123	     55.14526048	     37.21194751	      0.00000000	      0.00000000	     -3.28958834	     -9.82717401	     34.89386341	     31.86047819	     37.21194751	      0.00000000	      0.00000000
      1.51000000	      2.37552890	     -0.43648604	     -6.65198048	     -0.00446595	      1.06565851	     -0.25697230	    -12.10426849	     -1.38374184	     -4.70681344	    -34.08937001	     -5.67245769	     -1.40475713	      0.00000000	     23.43496995	     -0.64720329	     -4.15639054	    -21.06556990	     -7.34947307	    -11.57291644	      0.00000000	    -17.03609768	     -4.00210973	      5.19040596	      1.41935983	    -14.50052838	     30.26034486	     54.70541235	     37.24344253	      0.00000000	      0.00000000	     -2.92609922	     -9.88371648	     34.83467816	     31.76001368	     37.24344253	      0.00000000	      0.00000000
      1.52000000	      2.24075511	     -0.30769989	     -6.54066846	      0.00954988	      1.06833803	     -0.25881773	    -10.64928259	     -1.85903777	     -4.84370851	    -36.85737574	     -8.51504251	     -1.61868577	      0.00000000	     22.95047318	     -0.37629178	     -4.24030190	    -21.42608013	     -6.48157002	    -11.38383660	      0.00000000	    -16.82263903	     -4.07565417	      5.11772719	      0.48916268	    -14.25108203	     30.46061849	     53.79370913	     37.29107836	      0.00000000	      0.00000000	     -2.42010280	     -9.97036179	     34.76809408	     31.63771773	     37.29107836	      0.00000000	      0.00000000
      1.53000000	      2.08053907	     -0.15931758	     -6.45996760	      0.02325359	      1.07089669	     -0.26046443	     -9.01506535	     -2.15965110	     -4.52615283	    -39.75779336	    -11.16125210	     -2.81197650	      0.00000000	     22.41556896	     -0.05570532	     -4.14639283	    -21.61283552	     -5.55655510	    -11.02117200	      0.00000000	    -16.59309330	     -4.23113910	      5.10482092	     -0.23388196	    -13.89245617	     30.66812248	     52.70349454	     37.34044236	      0.00000000	      0.00000000	     -1.92106134	    -10.12352456	     34.71133286	     31.56138027	     37.34044236	      0.00000000	      0.00000000
      1.54000000	      1.87968680	     -0.19450323	     -6.41872512	      0.03661881	      1.07337808	     -0.26174188	     -7.28124471	     -1.95880427	     -3.66435408	    -42.57082912	    -14.02650198	     -5.45802161	      0.00000000	     22.00197708	     -0.09068957	     -4.59669073	    -21.98463670	     -4.34928161	     -9.83677327	      0.00000000	    -16.33565270	     -4.18757293	      4.96555169	      0.35550934	    -12.66102087	     31.84645386	     47.39493430	     37.71832223	      0.00000000	      0.00000000	     -1.47101409	    -10.19733122	     34.95464051	     30.94699019	     37.71832223	      0.00000000	      0.00000000
      1.55000000	      1.75347728	     -0.15603909	     -6.33955371	      0.04985114	      1.07575750	     -0.26308715	     -5.53501437	     -1.88121346	     -3.05193016	    -45.35005226	    -17.18258457	     -7.94178419	      0.00000000	     21.41338834	      0.05973256	     -4.69348038	    -22.13362702	     -3.43905027	     -9.49330615	      0.00000000	    -16.16736245	     -4.21509023	      4.76094028	      1.01838208	    -12.55658928	     36.56407993	     43.77225450	     38.66533536	      0.00000000	      0.00000000	     -1.00179158	    -10.49739645	     35.91126762	     30.78938439	     38.66533536	      0.00000000	      0.00000000
